<?xml version="1.0"?>
<svg xmlns="http://www.w3.org/2000/svg" xmlns:xlink="http://www.w3.org/1999/xlink" version="1.1" id="Layer_1" x="0px" y="0px" viewBox="0 0 512 512" style="enable-background:new 0 0 512 512;" xml:space="preserve" width="512px" height="512px" class=""><g><g>
	<g>
		<path d="M502.724,73.422L438.577,9.275c-12.367-12.367-32.49-12.367-44.857,0L53.087,349.907    c-1.091,1.091-1.921,2.416-2.425,3.875l-50.1,144.68c-1.278,3.691-0.336,7.788,2.425,10.55C4.932,510.957,7.539,512,10.201,512    c1.118,0,2.245-0.184,3.336-0.562l144.681-50.1c1.459-0.505,2.783-1.335,3.875-2.425l340.631-340.631    C515.091,105.913,515.091,85.79,502.724,73.422z M26.711,485.288l12.364-35.705l23.342,23.342L26.711,485.288z M83.846,465.504    l-37.351-37.35l18.609-53.739l72.481,72.481L83.846,465.504z M155.848,436.308l-50.783-50.783l125.381-125.381    c3.983-3.983,3.983-10.441,0-14.425c-3.983-3.982-10.441-3.982-14.425,0L90.641,371.101l-14.948-14.948L358.089,73.755    l40.078,40.078l40.078,40.078L155.848,436.308z M488.299,103.856l-35.63,35.63L372.513,59.33l35.63-35.631    c4.414-4.414,11.597-4.414,16.01,0l64.147,64.147C492.714,92.259,492.714,99.443,488.299,103.856z" data-original="#000000" class="active-path" data-old_color="#000000" fill="#FFFFFF"/>
	</g>
</g><g>
	<g>
		<path d="M268.693,207.472c-3.982-3.982-10.44-3.982-14.424,0l-14.279,14.279c-3.983,3.983-3.983,10.441,0,14.425    c1.992,1.991,4.602,2.987,7.212,2.987c2.61,0,5.221-0.996,7.212-2.987l14.279-14.279    C272.676,217.914,272.676,211.456,268.693,207.472z" data-original="#000000" class="active-path" data-old_color="#000000" fill="#FFFFFF"/>
	</g>
</g></g> </svg>
